<svg width="24" height="26" viewBox="0 0 24 26" fill="none" xmlns="http://www.w3.org/2000/svg">
<path id="Vector" d="M1.50005 0.249512C1.10221 0.249512 0.720668 0.407552 0.439354 0.688866C0.15804 0.97018 0 1.35172 0 1.74956C0 2.1474 0.15804 2.52894 0.439354 2.81026C0.720668 3.09157 1.10221 3.24961 1.50005 3.24961H3.33011L3.78763 5.08267C3.79217 5.10378 3.79717 5.12479 3.80263 5.14568L5.8397 13.2909L4.50015 14.629C2.61009 16.5191 3.94813 19.7502 6.62122 19.7502H19.5007C19.8985 19.7502 20.28 19.5921 20.5613 19.3108C20.8427 19.0295 21.0007 18.648 21.0007 18.2501C21.0007 17.8523 20.8427 17.4707 20.5613 17.1894C20.28 16.9081 19.8985 16.7501 19.5007 16.7501H6.62122L8.12127 15.25H18.0006C18.2791 15.2499 18.5521 15.1722 18.7889 15.0257C19.0258 14.8792 19.2172 14.6696 19.3416 14.4205L23.8418 5.42018C23.956 5.19155 24.01 4.93751 23.9985 4.68217C23.987 4.42683 23.9104 4.17867 23.7761 3.96123C23.6417 3.74378 23.4541 3.56428 23.2309 3.43973C23.0077 3.31519 22.7563 3.24975 22.5008 3.24961H6.42021L5.9552 1.38505C5.87394 1.06067 5.68662 0.772742 5.42299 0.567005C5.15937 0.361269 4.83455 0.249521 4.50015 0.249512H1.50005ZM21.0007 23.5003C21.0007 24.097 20.7636 24.6694 20.3417 25.0913C19.9197 25.5133 19.3474 25.7504 18.7506 25.7504C18.1539 25.7504 17.5816 25.5133 17.1596 25.0913C16.7376 24.6694 16.5006 24.097 16.5006 23.5003C16.5006 22.9035 16.7376 22.3312 17.1596 21.9092C17.5816 21.4873 18.1539 21.2502 18.7506 21.2502C19.3474 21.2502 19.9197 21.4873 20.3417 21.9092C20.7636 22.3312 21.0007 22.9035 21.0007 23.5003ZM6.75023 25.7504C7.34698 25.7504 7.9193 25.5133 8.34127 25.0913C8.76324 24.6694 9.0003 24.097 9.0003 23.5003C9.0003 22.9035 8.76324 22.3312 8.34127 21.9092C7.9193 21.4873 7.34698 21.2502 6.75023 21.2502C6.15347 21.2502 5.58115 21.4873 5.15918 21.9092C4.73721 22.3312 4.50015 22.9035 4.50015 23.5003C4.50015 24.097 4.73721 24.6694 5.15918 25.0913C5.58115 25.5133 6.15347 25.7504 6.75023 25.7504Z" fill="#2B2A4C"/>
</svg>
