<svg width="41" height="40" viewBox="0 0 41 40" fill="none" xmlns="http://www.w3.org/2000/svg">
<g id="Group 145">
<rect id="Rectangle 74" x="0.5" width="40" height="40" rx="5" fill="white"/>
<path id="Vector" d="M13.5588 11C13.278 11 13.0087 11.1116 12.8101 11.3101C12.6116 11.5087 12.5 11.778 12.5 12.0588C12.5 12.3396 12.6116 12.609 12.8101 12.8075C13.0087 13.0061 13.278 13.1176 13.5588 13.1176H14.8506L15.1735 14.4115C15.1767 14.4264 15.1803 14.4413 15.1841 14.456L16.622 20.2054L15.6765 21.1499C14.3424 22.484 15.2868 24.7647 17.1736 24.7647H26.2647C26.5455 24.7647 26.8148 24.6532 27.0134 24.4546C27.212 24.256 27.3235 23.9867 27.3235 23.7059C27.3235 23.4251 27.212 23.1558 27.0134 22.9572C26.8148 22.7586 26.5455 22.6471 26.2647 22.6471H17.1736L18.2325 21.5882H25.2059C25.4025 21.5881 25.5951 21.5333 25.7623 21.4299C25.9295 21.3265 26.0646 21.1786 26.1525 21.0027L29.3289 14.6498C29.4096 14.4884 29.4477 14.3091 29.4395 14.1288C29.4314 13.9486 29.3774 13.7734 29.2826 13.6199C29.1877 13.4665 29.0553 13.3398 28.8977 13.2518C28.7402 13.1639 28.5628 13.1177 28.3824 13.1176H17.0318L16.7035 11.8015C16.6462 11.5726 16.5139 11.3693 16.3279 11.2241C16.1418 11.0789 15.9125 11 15.6765 11H13.5588ZM27.3235 27.4118C27.3235 27.833 27.1562 28.237 26.8583 28.5348C26.5605 28.8327 26.1565 29 25.7353 29C25.3141 29 24.9101 28.8327 24.6122 28.5348C24.3144 28.237 24.1471 27.833 24.1471 27.4118C24.1471 26.9905 24.3144 26.5866 24.6122 26.2887C24.9101 25.9909 25.3141 25.8235 25.7353 25.8235C26.1565 25.8235 26.5605 25.9909 26.8583 26.2887C27.1562 26.5866 27.3235 26.9905 27.3235 27.4118ZM17.2647 29C17.6859 29 18.0899 28.8327 18.3878 28.5348C18.6856 28.237 18.8529 27.833 18.8529 27.4118C18.8529 26.9905 18.6856 26.5866 18.3878 26.2887C18.0899 25.9909 17.6859 25.8235 17.2647 25.8235C16.8435 25.8235 16.4395 25.9909 16.1417 26.2887C15.8438 26.5866 15.6765 26.9905 15.6765 27.4118C15.6765 27.833 15.8438 28.237 16.1417 28.5348C16.4395 28.8327 16.8435 29 17.2647 29Z" fill="#2B2A4C"/>
</g>
</svg>
