<svg width="24" height="24" viewBox="0 0 24 24" fill="none" xmlns="http://www.w3.org/2000/svg">
<g id="grid" clip-path="url(#clip0_518_1618)">
<g id="Vector">
<path d="M20.5 1.5H16.5C15.3954 1.5 14.5 2.39543 14.5 3.5V7.5C14.5 8.60457 15.3954 9.5 16.5 9.5H20.5C21.6046 9.5 22.5 8.60457 22.5 7.5V3.5C22.5 2.39543 21.6046 1.5 20.5 1.5Z" stroke="black" stroke-width="3" stroke-linecap="round" stroke-linejoin="round"/>
<path d="M7.5 14.5H3.5C2.39543 14.5 1.5 15.3954 1.5 16.5V20.5C1.5 21.6046 2.39543 22.5 3.5 22.5H7.5C8.60457 22.5 9.5 21.6046 9.5 20.5V16.5C9.5 15.3954 8.60457 14.5 7.5 14.5Z" stroke="black" stroke-width="3" stroke-linecap="round" stroke-linejoin="round"/>
<path d="M20.5 14.5H16.5C15.3954 14.5 14.5 15.3954 14.5 16.5V20.5C14.5 21.6046 15.3954 22.5 16.5 22.5H20.5C21.6046 22.5 22.5 21.6046 22.5 20.5V16.5C22.5 15.3954 21.6046 14.5 20.5 14.5Z" stroke="black" stroke-width="3" stroke-linecap="round" stroke-linejoin="round"/>
<path d="M7.5 1.5H3.5C2.39543 1.5 1.5 2.39543 1.5 3.5V7.5C1.5 8.60457 2.39543 9.5 3.5 9.5H7.5C8.60457 9.5 9.5 8.60457 9.5 7.5V3.5C9.5 2.39543 8.60457 1.5 7.5 1.5Z" stroke="black" stroke-width="3" stroke-linecap="round" stroke-linejoin="round"/>
</g>
</g>
<defs>
<clipPath id="clip0_518_1618">
<rect width="24" height="24" fill="white"/>
</clipPath>
</defs>
</svg>
