<svg width="40" height="40" viewBox="0 0 40 40" fill="none" xmlns="http://www.w3.org/2000/svg">
<g id="Group 145">
<rect id="Rectangle 74" width="40" height="40" rx="5" fill="white"/>
<path id="Vector" d="M17.894 13.1689C17.6288 13.1689 17.3745 13.2743 17.1869 13.4618C16.9994 13.6494 16.894 13.9037 16.894 14.1689C16.894 14.4342 16.9994 14.6885 17.1869 14.8761C17.3745 15.0636 17.6288 15.1689 17.894 15.1689H23.894C24.1593 15.1689 24.4136 15.0636 24.6011 14.8761C24.7887 14.6885 24.894 14.4342 24.894 14.1689C24.894 13.9037 24.7887 13.6494 24.6011 13.4618C24.4136 13.2743 24.1593 13.1689 23.894 13.1689H17.894ZM14.894 17.1689C14.894 16.9037 14.9994 16.6494 15.1869 16.4618C15.3745 16.2743 15.6288 16.1689 15.894 16.1689H25.894C26.1593 16.1689 26.4136 16.2743 26.6011 16.4618C26.7887 16.6494 26.894 16.9037 26.894 17.1689C26.894 17.4342 26.7887 17.6885 26.6011 17.8761C26.4136 18.0636 26.1593 18.1689 25.894 18.1689H15.894C15.6288 18.1689 15.3745 18.0636 15.1869 17.8761C14.9994 17.6885 14.894 17.4342 14.894 17.1689ZM12.894 21.1689C12.894 20.6385 13.1048 20.1298 13.4798 19.7547C13.8549 19.3797 14.3636 19.1689 14.894 19.1689H26.894C27.4245 19.1689 27.9332 19.3797 28.3083 19.7547C28.6833 20.1298 28.894 20.6385 28.894 21.1689V25.1689C28.894 25.6994 28.6833 26.2081 28.3083 26.5832C27.9332 26.9582 27.4245 27.1689 26.894 27.1689H14.894C14.3636 27.1689 13.8549 26.9582 13.4798 26.5832C13.1048 26.2081 12.894 25.6994 12.894 25.1689V21.1689Z" fill="black"/>
</g>
</svg>
