<svg width="40" height="40" viewBox="0 0 40 40" fill="none" xmlns="http://www.w3.org/2000/svg">
<g id="Group 143">
<rect id="Rectangle 73" width="40" height="40" rx="5" fill="white"/>
<path id="Vector" d="M10.6201 11.9058C10.6201 11.5648 10.7556 11.2378 10.9967 10.9967C11.2378 10.7556 11.5648 10.6201 11.9058 10.6201H27.3344C27.6754 10.6201 28.0024 10.7556 28.2435 10.9967C28.4847 11.2378 28.6201 11.5648 28.6201 11.9058V14.4773C28.6201 14.8183 28.4847 15.1453 28.2435 15.3864C28.0024 15.6275 27.6754 15.763 27.3344 15.763H11.9058C11.5648 15.763 11.2378 15.6275 10.9967 15.3864C10.7556 15.1453 10.6201 14.8183 10.6201 14.4773V11.9058ZM10.6201 19.6201C10.6201 19.2791 10.7556 18.9521 10.9967 18.711C11.2378 18.4699 11.5648 18.3344 11.9058 18.3344H19.6201C19.9611 18.3344 20.2881 18.4699 20.5293 18.711C20.7704 18.9521 20.9058 19.2791 20.9058 19.6201V27.3344C20.9058 27.6754 20.7704 28.0024 20.5293 28.2435C20.2881 28.4847 19.9611 28.6201 19.6201 28.6201H11.9058C11.5648 28.6201 11.2378 28.4847 10.9967 28.2435C10.7556 28.0024 10.6201 27.6754 10.6201 27.3344V19.6201ZM24.763 18.3344C24.422 18.3344 24.095 18.4699 23.8538 18.711C23.6127 18.9521 23.4773 19.2791 23.4773 19.6201V27.3344C23.4773 27.6754 23.6127 28.0024 23.8538 28.2435C24.095 28.4847 24.422 28.6201 24.763 28.6201H27.3344C27.6754 28.6201 28.0024 28.4847 28.2435 28.2435C28.4847 28.0024 28.6201 27.6754 28.6201 27.3344V19.6201C28.6201 19.2791 28.4847 18.9521 28.2435 18.711C28.0024 18.4699 27.6754 18.3344 27.3344 18.3344H24.763Z" fill="#2B2A4C"/>
</g>
</svg>
