<svg width="24" height="24" viewBox="0 0 24 24" fill="none" xmlns="http://www.w3.org/2000/svg">
<path id="Vector" d="M0 1.71429C0 1.25963 0.180612 0.823594 0.502103 0.502103C0.823594 0.180612 1.25963 0 1.71429 0H22.2857C22.7404 0 23.1764 0.180612 23.4979 0.502103C23.8194 0.823594 24 1.25963 24 1.71429V5.14286C24 5.59751 23.8194 6.03355 23.4979 6.35504C23.1764 6.67653 22.7404 6.85714 22.2857 6.85714H1.71429C1.25963 6.85714 0.823594 6.67653 0.502103 6.35504C0.180612 6.03355 0 5.59751 0 5.14286V1.71429ZM0 12C0 11.5453 0.180612 11.1093 0.502103 10.7878C0.823594 10.4663 1.25963 10.2857 1.71429 10.2857H12C12.4547 10.2857 12.8907 10.4663 13.2122 10.7878C13.5337 11.1093 13.7143 11.5453 13.7143 12V22.2857C13.7143 22.7404 13.5337 23.1764 13.2122 23.4979C12.8907 23.8194 12.4547 24 12 24H1.71429C1.25963 24 0.823594 23.8194 0.502103 23.4979C0.180612 23.1764 0 22.7404 0 22.2857V12ZM18.8571 10.2857C18.4025 10.2857 17.9665 10.4663 17.645 10.7878C17.3235 11.1093 17.1429 11.5453 17.1429 12V22.2857C17.1429 22.7404 17.3235 23.1764 17.645 23.4979C17.9665 23.8194 18.4025 24 18.8571 24H22.2857C22.7404 24 23.1764 23.8194 23.4979 23.4979C23.8194 23.1764 24 22.7404 24 22.2857V12C24 11.5453 23.8194 11.1093 23.4979 10.7878C23.1764 10.4663 22.7404 10.2857 22.2857 10.2857H18.8571Z" fill="black"/>
</svg>
