<svg width="40" height="40" viewBox="0 0 40 40" fill="none" xmlns="http://www.w3.org/2000/svg">
<g id="Group 144">
<rect id="Rectangle 73" width="40" height="40" rx="5" fill="white"/>
<path id="Vector" fill-rule="evenodd" clip-rule="evenodd" d="M13 13.4C13 12.7635 13.2529 12.153 13.7029 11.7029C14.153 11.2529 14.7635 11 15.4 11C15.4 11.9548 15.7793 12.8705 16.4544 13.5456C17.1295 14.2207 18.0452 14.6 19 14.6H21.4C22.3548 14.6 23.2705 14.2207 23.9456 13.5456C24.6207 12.8705 25 11.9548 25 11C25.6365 11 26.247 11.2529 26.6971 11.7029C27.1471 12.153 27.4 12.7635 27.4 13.4V26.6C27.4 27.2365 27.1471 27.847 26.6971 28.2971C26.247 28.7471 25.6365 29 25 29H15.4C14.7635 29 14.153 28.7471 13.7029 28.2971C13.2529 27.847 13 27.2365 13 26.6V13.4ZM16.6 18.2C16.2817 18.2 15.9765 18.3264 15.7515 18.5515C15.5264 18.7765 15.4 19.0817 15.4 19.4C15.4 19.7183 15.5264 20.0235 15.7515 20.2485C15.9765 20.4736 16.2817 20.6 16.6 20.6H16.612C16.9303 20.6 17.2355 20.4736 17.4605 20.2485C17.6856 20.0235 17.812 19.7183 17.812 19.4C17.812 19.0817 17.6856 18.7765 17.4605 18.5515C17.2355 18.3264 16.9303 18.2 16.612 18.2H16.6ZM20.2 18.2C19.8817 18.2 19.5765 18.3264 19.3515 18.5515C19.1264 18.7765 19 19.0817 19 19.4C19 19.7183 19.1264 20.0235 19.3515 20.2485C19.5765 20.4736 19.8817 20.6 20.2 20.6H23.8C24.1183 20.6 24.4235 20.4736 24.6485 20.2485C24.8736 20.0235 25 19.7183 25 19.4C25 19.0817 24.8736 18.7765 24.6485 18.5515C24.4235 18.3264 24.1183 18.2 23.8 18.2H20.2ZM16.6 23C16.2817 23 15.9765 23.1264 15.7515 23.3515C15.5264 23.5765 15.4 23.8817 15.4 24.2C15.4 24.5183 15.5264 24.8235 15.7515 25.0485C15.9765 25.2736 16.2817 25.4 16.6 25.4H16.612C16.9303 25.4 17.2355 25.2736 17.4605 25.0485C17.6856 24.8235 17.812 24.5183 17.812 24.2C17.812 23.8817 17.6856 23.5765 17.4605 23.3515C17.2355 23.1264 16.9303 23 16.612 23H16.6ZM20.2 23C19.8817 23 19.5765 23.1264 19.3515 23.3515C19.1264 23.5765 19 23.8817 19 24.2C19 24.5183 19.1264 24.8235 19.3515 25.0485C19.5765 25.2736 19.8817 25.4 20.2 25.4H23.8C24.1183 25.4 24.4235 25.2736 24.6485 25.0485C24.8736 24.8235 25 24.5183 25 24.2C25 23.8817 24.8736 23.5765 24.6485 23.3515C24.4235 23.1264 24.1183 23 23.8 23H20.2Z" fill="#2B2A4C"/>
</g>
</svg>
