<svg width="15" height="15" viewBox="0 0 15 15" fill="none" xmlns="http://www.w3.org/2000/svg">
<path id="Union" d="M14.5152 5.2818L10.0185 4.59745L8.00835 0.330002C7.95345 0.213161 7.86313 0.118576 7.75155 0.0610835C7.47172 -0.0835759 7.13168 0.0369736 6.99177 0.330002L4.98162 4.59745L0.484912 5.2818C0.360938 5.30035 0.247591 5.36155 0.160809 5.45428C0.0558949 5.5672 -0.00191765 5.71912 7.48819e-05 5.87665C0.00206741 6.03419 0.063702 6.18445 0.171435 6.29442L3.42486 9.61602L2.65623 14.3063C2.6382 14.4154 2.64973 14.5276 2.68951 14.6302C2.72928 14.7328 2.79572 14.8217 2.88127 14.8868C2.96683 14.9518 3.06808 14.9905 3.17355 14.9984C3.27902 15.0063 3.38449 14.983 3.478 14.9313L7.50006 12.7169L11.5221 14.9313C11.6319 14.9925 11.7594 15.0129 11.8817 14.9907C12.1898 14.935 12.397 14.629 12.3439 14.3063L11.5753 9.61602L14.8287 6.29442C14.9172 6.20354 14.9757 6.08485 14.9934 5.95502C15.0412 5.63047 14.8251 5.33002 14.5152 5.2818Z" fill="#FFF566"/>
</svg>
